ffmpeg version 3.4.8-0ubuntu0.2 Copyright (c) 2000-2020 the FFmpeg developers
  built with gcc 7 (Ubuntu 7.5.0-3ubuntu1~18.04)
  configuration: --prefix=/usr --extra-version=0ubuntu0.2 --toolchain=hardened --libdir=/usr/lib/x86_64-linux-gnu --incdir=/usr/include/x86_64-linux-gnu --enable-gpl --disable-stripping --enable-avresample --enable-avisynth --enable-gnutls --enable-ladspa --enable-libass --enable-libbluray --enable-libbs2b --enable-libcaca --enable-libcdio --enable-libflite --enable-libfontconfig --enable-libfreetype --enable-libfribidi --enable-libgme --enable-libgsm --enable-libmp3lame --enable-libmysofa --enable-libopenjpeg --enable-libopenmpt --enable-libopus --enable-libpulse --enable-librubberband --enable-librsvg --enable-libshine --enable-libsnappy --enable-libsoxr --enable-libspeex --enable-libssh --enable-libtheora --enable-libtwolame --enable-libvorbis --enable-libvpx --enable-libwavpack --enable-libwebp --enable-libx265 --enable-libxml2 --enable-libxvid --enable-libzmq --enable-libzvbi --enable-omx --enable-openal --enable-opengl --enable-sdl2 --enable-libdc1394 --enable-libdrm --enable-libiec61883 --enable-chromaprint --enable-frei0r --enable-libopencv --enable-libx264 --enable-shared
  libavutil      55. 78.100 / 55. 78.100
  libavcodec     57.107.100 / 57.107.100
  libavformat    57. 83.100 / 57. 83.100
  libavdevice    57. 10.100 / 57. 10.100
  libavfilter     6.107.100 /  6.107.100
  libavresample   3.  7.  0 /  3.  7.  0
  libswscale      4.  8.100 /  4.  8.100
  libswresample   2.  9.100 /  2.  9.100
  libpostproc    54.  7.100 / 54.  7.100
[rawvideo @ 0x564bb4eb6a20] Estimating duration from bitrate, this may be inaccurate
Input #0, rawvideo, from '../../SVC-Encoder-20220109T061506Z-001/SVC-Encoder/Dataset/RollerCoaster/ERP_8x8/tile_yuv/Tile_24_480x240.yuv':
  Duration: 00:00:10.00, start: 0.000000, bitrate: 41472 kb/s
    Stream #0:0: Video: rawvideo (I420 / 0x30323449), yuv420p, 480x240, 41472 kb/s, 30 tbr, 30 tbn, 30 tbc
Stream mapping:
  Stream #0:0 -> #0:0 (rawvideo (native) -> h264 (libx264))
Press [q] to stop, [?] for help
[libx264 @ 0x564bb4ec3c60] using cpu capabilities: MMX2 SSE2Fast LZCNT SSSE3 SSE4.2 AVX
[libx264 @ 0x564bb4ec3c60] profile High, level 2.1
Output #0, rawvideo, to 'RollerCoaster_Tile_24_480x240_x264_QP_40.h264':
  Metadata:
    encoder         : Lavf57.83.100
    Stream #0:0: Video: h264 (libx264), yuv420p, 480x240, q=-1--1, 30 fps, 30 tbn, 30 tbc
    Metadata:
      encoder         : Lavc57.107.100 libx264
    Side data:
      cpb: bitrate max/min/avg: 0/0/0 buffer size: 0 vbv_delay: -1
frame=  188 fps=0.0 q=46.0 PSNR=Y:nan U:nan V:nan *:nan size=      32kB time=00:00:04.83 bitrate=  54.3kbits/s speed=9.59x    frame=  300 fps=0.0 q=46.0 LPSNR=Y:inf U:inf V:inf *:inf size=      64kB time=00:00:09.93 bitrate=  52.8kbits/s speed=11.6x    
video:64kB audio:0kB subtitle:0kB other streams:0kB global headers:0kB muxing overhead: 0.000000%
[libx264 @ 0x564bb4ec3c60] frame I:2     Avg QP:37.20  size:  6097  PSNR Mean Y:30.15 U:39.98 V:43.28 Avg:31.74 Global:31.69
[libx264 @ 0x564bb4ec3c60] frame P:76    Avg QP:39.31  size:   463  PSNR Mean Y:28.71 U:40.41 V:42.97 Avg:30.36 Global:30.34
[libx264 @ 0x564bb4ec3c60] frame B:222   Avg QP:45.47  size:    82  PSNR Mean Y:28.56 U:40.29 V:42.95 Avg:30.21 Global:30.19
[libx264 @ 0x564bb4ec3c60] consecutive B-frames:  1.3%  0.0%  0.0% 98.7%
[libx264 @ 0x564bb4ec3c60] mb I  I16..4: 15.4% 71.9% 12.7%
[libx264 @ 0x564bb4ec3c60] mb P  I16..4:  0.0%  0.0%  0.0%  P16..4: 35.4%  4.4%  0.8%  0.0%  0.0%    skip:59.3%
[libx264 @ 0x564bb4ec3c60] mb B  I16..4:  0.0%  0.0%  0.0%  B16..8: 15.7%  0.0%  0.0%  direct: 0.0%  skip:84.2%  L0:29.7% L1:70.3% BI: 0.0%
[libx264 @ 0x564bb4ec3c60] 8x8 transform intra:71.6% inter:81.7%
[libx264 @ 0x564bb4ec3c60] coded y,uvDC,uvAC intra: 82.9% 61.2% 10.6% inter: 1.6% 0.8% 0.0%
[libx264 @ 0x564bb4ec3c60] i16 v,h,dc,p: 17% 22% 41% 20%
[libx264 @ 0x564bb4ec3c60] i8 v,h,dc,ddl,ddr,vr,hd,vl,hu:  8% 22% 18%  6%  7%  6% 12% 12%  9%
[libx264 @ 0x564bb4ec3c60] i4 v,h,dc,ddl,ddr,vr,hd,vl,hu: 16% 17% 13%  6%  8% 10%  9% 15%  5%
[libx264 @ 0x564bb4ec3c60] i8c dc,h,v,p: 61% 18% 14%  7%
[libx264 @ 0x564bb4ec3c60] Weighted P-Frames: Y:1.3% UV:0.0%
[libx264 @ 0x564bb4ec3c60] ref P L0: 67.7% 12.0% 16.0%  4.2%  0.0%
[libx264 @ 0x564bb4ec3c60] ref B L0: 77.0% 20.4%  2.7%
[libx264 @ 0x564bb4ec3c60] ref B L1: 79.1% 20.9%
[libx264 @ 0x564bb4ec3c60] PSNR Mean Y:28.610 U:40.322 V:42.959 Avg:30.258 Global:30.239 kb/s:52.40
